<?xml version="1.0" encoding="UTF-8" standalone="no"?>
<svg
   xmlns:dc="http://purl.org/dc/elements/1.1/"
   xmlns:cc="http://creativecommons.org/ns#"
   xmlns:rdf="http://www.w3.org/1999/02/22-rdf-syntax-ns#"
   xmlns:svg="http://www.w3.org/2000/svg"
   xmlns="http://www.w3.org/2000/svg"
   xmlns:sodipodi="http://sodipodi.sourceforge.net/DTD/sodipodi-0.dtd"
   xmlns:inkscape="http://www.inkscape.org/namespaces/inkscape"
   width="90mm"
   height="90mm"
   viewBox="0 0 90 90"
   version="1.1"
   id="svg8"
   sodipodi:docname="favicon.svg"
   inkscape:version="0.92.5 (2060ec1f9f, 2020-04-08)">
  <defs
     id="defs2">
    <inkscape:perspective
       sodipodi:type="inkscape:persp3d"
       inkscape:vp_x="45.670245 : -45.003181 : 1"
       inkscape:vp_y="9511.007 : -4054.2474 : 0"
       inkscape:vp_z="-96.083647 : -13.66775 : 1"
       inkscape:persp3d-origin="581.71508 : -144.93923 : 1"
       id="perspective4598" />
    <rect
       x="60.620455"
       y="38.695295"
       width="57.9482"
       height="43.576759"
       id="rect45" />
    <inkscape:perspective
       sodipodi:type="inkscape:persp3d"
       inkscape:vp_x="67.935204 : -5.9775044 : 1"
       inkscape:vp_y="3341.6632 : -1149.4147 : 0"
       inkscape:vp_z="-11.833106 : -16.906452 : 1"
       inkscape:persp3d-origin="227.21718 : 13.025354 : 1"
       id="perspective78" />
    <rect
       x="14.524638"
       y="11.372845"
       width="188.11842"
       height="106.31857"
       id="rect42" />
    <inkscape:perspective
       sodipodi:type="inkscape:persp3d"
       inkscape:vp_x="3.4107882 : 55.586908 : 1"
       inkscape:vp_y="0 : 1364.1443 : 0"
       inkscape:vp_z="134.60469 : 14.339207 : 1"
       inkscape:persp3d-origin="66.215227 : 42.625145 : 1"
       id="perspective10" />
  </defs>
  <sodipodi:namedview
     id="base"
     pagecolor="#ffffff"
     bordercolor="#666666"
     borderopacity="1.0"
     inkscape:pageopacity="0.0"
     inkscape:pageshadow="2"
     inkscape:zoom="1.9779656"
     inkscape:cx="135.86027"
     inkscape:cy="170.15576"
     inkscape:document-units="mm"
     inkscape:current-layer="layer3"
     inkscape:document-rotation="0"
     showgrid="false"
     inkscape:window-width="1848"
     inkscape:window-height="1016"
     inkscape:window-x="72"
     inkscape:window-y="27"
     inkscape:window-maximized="1" />
  <metadata
     id="metadata5">
    <rdf:RDF>
      <cc:Work
         rdf:about="">
        <dc:format>image/svg+xml</dc:format>
        <dc:type
           rdf:resource="http://purl.org/dc/dcmitype/StillImage" />
        <dc:title />
      </cc:Work>
    </rdf:RDF>
  </metadata>
  <g
     style="display:inline"
     inkscape:label="back"
     id="layer3"
     inkscape:groupmode="layer">
    <ellipse
       ry="43.72411"
       rx="44.00386"
       cy="44.200069"
       cx="45.255215"
       id="path49"
       style="fill:#000080;fill-opacity:0.7516583;stroke:#000000;stroke-width:0.26976505;stroke-miterlimit:4;stroke-dasharray:none;stroke-opacity:1" />
    <flowRoot
       xml:space="preserve"
       id="flowRoot4600"
       style="font-style:normal;font-weight:normal;font-size:40px;line-height:1.25;font-family:sans-serif;letter-spacing:0px;word-spacing:0px;display:inline;opacity:1;fill:#000000;fill-opacity:1;stroke:#000000"
       transform="matrix(1.3017993,0.29858624,-0.32348119,1.3662129,-268.03495,-256.58117)"><flowRegion
         id="flowRegion4602"
         style="fill:#000000;stroke:#000000"><rect
           id="rect4604"
           width="60.773632"
           height="50.048874"
           x="276.69876"
           y="142.10693"
           style="fill:#000000;stroke:#000000" /></flowRegion><flowPara
         id="flowPara4606">G</flowPara></flowRoot>  </g>
  <g
     inkscape:label="F"
     inkscape:groupmode="layer"
     id="layer1"
     style="display:inline;opacity:1">
    <g
       sodipodi:type="inkscape:box3d"
       id="g46"
       style="fill:#000000;stroke:#000000"
       inkscape:perspectiveID="#perspective10"
       inkscape:corner0="2.5963569 : 0.045481794 : 0 : 1"
       inkscape:corner7="0.45060714 : 0.025511199 : 0.25089799 : 1">
      <path
         sodipodi:type="inkscape:box3dside"
         id="path58"
         style="fill:#e9e9ff;fill-rule:evenodd;stroke:none;stroke-width:1.39808989;stroke-linejoin:round"
         inkscape:box3dsidetype="11"
         d="M 28.291053,24.345395 59.667288,11.64913 v 16.010985 l -31.376235,3.766374 z"
         points="59.667288,11.64913 59.667288,27.660115 28.291053,31.426489 28.291053,24.345395 " />
      <path
         sodipodi:type="inkscape:box3dside"
         id="path48"
         style="fill:#353564;fill-rule:evenodd;stroke:none;stroke-width:1.39808989;stroke-linejoin:round"
         inkscape:box3dsidetype="6"
         d="m 20.874137,20.765403 v 7.575103 l 7.416916,3.085983 v -7.081094 z"
         points="20.874137,28.340506 28.291053,31.426489 28.291053,24.345395 20.874137,20.765403 " />
      <path
         sodipodi:type="inkscape:box3dside"
         id="path50"
         style="fill:#4d4d9f;fill-rule:evenodd;stroke:none;stroke-width:1.39808989;stroke-linejoin:round"
         inkscape:box3dsidetype="5"
         d="M 20.874137,20.765403 46.706064,0.57762958 59.667288,11.64913 28.291053,24.345395 Z"
         points="46.706064,0.57762958 59.667288,11.64913 28.291053,24.345395 20.874137,20.765403 " />
      <path
         sodipodi:type="inkscape:box3dside"
         id="path56"
         style="fill:#afafde;fill-rule:evenodd;stroke:none;stroke-width:1.39808989;stroke-linejoin:round"
         inkscape:box3dsidetype="13"
         d="m 20.874137,28.340506 25.831927,-8.982621 12.961224,8.30223 -31.376235,3.766374 z"
         points="46.706064,19.357885 59.667288,27.660115 28.291053,31.426489 20.874137,28.340506 " />
      <path
         sodipodi:type="inkscape:box3dside"
         id="path54"
         style="fill:#d7d7ff;fill-rule:evenodd;stroke:none;stroke-width:1.39808989;stroke-linejoin:round"
         inkscape:box3dsidetype="14"
         d="M 46.706064,0.57762958 V 19.357885 l 12.961224,8.30223 V 11.64913 Z"
         points="46.706064,19.357885 59.667288,27.660115 59.667288,11.64913 46.706064,0.57762958 " />
      <path
         sodipodi:type="inkscape:box3dside"
         id="path52"
         style="fill:#8686bf;fill-rule:evenodd;stroke:none;stroke-width:1.39808989;stroke-linejoin:round"
         inkscape:box3dsidetype="3"
         d="M 20.874137,20.765403 46.706064,0.57762958 V 19.357885 l -25.831927,8.982621 z"
         points="46.706064,0.57762958 46.706064,19.357885 20.874137,28.340506 20.874137,20.765403 " />
    </g>
    <g
       inkscape:corner7="1.9482016 : -0.086011528 : 0.25805701 : 1"
       inkscape:corner0="2.5963568 : 0.025659468 : 0 : 1"
       inkscape:perspectiveID="#perspective10"
       style="fill:#000000;stroke:#000000"
       id="g176"
       sodipodi:type="inkscape:box3d">
      <path
         points="33.558058,30.858422 33.558058,78.370294 28.488516,70.978486 28.488516,31.456173 "
         d="m 28.488516,31.456173 5.069542,-0.597751 v 47.511872 l -5.069542,-7.391808 z"
         inkscape:box3dsidetype="11"
         style="fill:#e9e9ff;fill-rule:evenodd;stroke:none;stroke-width:1.39808989;stroke-linejoin:round"
         id="path188"
         sodipodi:type="inkscape:box3dside" />
      <path
         points="24.713414,78.607458 33.558058,78.370294 28.488516,70.978486 20.874138,70.642506 "
         d="m 20.874138,70.642506 3.839276,7.964952 8.844644,-0.237164 -5.069542,-7.391808 z"
         inkscape:box3dsidetype="13"
         style="fill:#afafde;fill-rule:evenodd;stroke:none;stroke-width:1.39808989;stroke-linejoin:round"
         id="path186"
         sodipodi:type="inkscape:box3dside" />
      <path
         points="20.874138,70.642506 28.488516,70.978486 28.488516,31.456173 20.874138,28.284265 "
         d="m 20.874138,28.284265 v 42.358241 l 7.614378,0.33598 V 31.456173 Z"
         inkscape:box3dsidetype="6"
         style="fill:#353564;fill-rule:evenodd;stroke:none;stroke-width:1.39808989;stroke-linejoin:round"
         id="path178"
         sodipodi:type="inkscape:box3dside" />
      <path
         points="24.713414,26.936857 33.558058,30.858422 28.488516,31.456173 20.874138,28.284265 "
         d="m 20.874138,28.284265 3.839276,-1.347408 8.844644,3.921565 -5.069542,0.597751 z"
         inkscape:box3dsidetype="5"
         style="fill:#4d4d9f;fill-rule:evenodd;stroke:none;stroke-width:1.39808989;stroke-linejoin:round"
         id="path180"
         sodipodi:type="inkscape:box3dside" />
      <path
         points="24.713414,78.607458 33.558058,78.370294 33.558058,30.858422 24.713414,26.936857 "
         d="m 24.713414,26.936857 v 51.670601 l 8.844644,-0.237164 V 30.858422 Z"
         inkscape:box3dsidetype="14"
         style="fill:#d7d7ff;fill-rule:evenodd;stroke:none;stroke-width:1.39808989;stroke-linejoin:round"
         id="path184"
         sodipodi:type="inkscape:box3dside" />
      <path
         points="24.713414,26.936857 24.713414,78.607458 20.874138,70.642506 20.874138,28.284265 "
         d="m 20.874138,28.284265 3.839276,-1.347408 v 51.670601 l -3.839276,-7.964952 z"
         inkscape:box3dsidetype="3"
         style="fill:#8686bf;fill-rule:evenodd;stroke:none;stroke-width:1.39808989;stroke-linejoin:round"
         id="path182"
         sodipodi:type="inkscape:box3dside" />
    </g>
    <g
       inkscape:corner7="0.59796936 : -0.01464046 : 0.19573899 : 1"
       inkscape:corner0="1.6402498 : 0.0039488971 : 0 : 1"
       inkscape:perspectiveID="#perspective10"
       style="fill:#000000;stroke:#000000"
       id="g190"
       sodipodi:type="inkscape:box3d">
      <path
         points="52.741103,43.137299 52.741103,57.274806 34.611263,48.872687 34.611263,39.930986 "
         d="m 34.611263,39.930986 18.12984,3.206313 v 14.137507 l -18.12984,-8.402119 z"
         inkscape:box3dsidetype="11"
         style="fill:#e9e9ff;fill-rule:evenodd;stroke:none;stroke-width:1.39808989;stroke-linejoin:round"
         id="path202"
         sodipodi:type="inkscape:box3dside" />
      <path
         points="42.713442,55.022664 52.741103,57.274806 34.611263,48.872687 27.198097,46.88671 "
         d="m 27.198097,46.88671 15.515345,8.135954 10.027661,2.252142 -18.12984,-8.402119 z"
         inkscape:box3dsidetype="13"
         style="fill:#afafde;fill-rule:evenodd;stroke:none;stroke-width:1.39808989;stroke-linejoin:round"
         id="path200"
         sodipodi:type="inkscape:box3dside" />
      <path
         points="27.198097,46.88671 34.611263,48.872687 34.611263,39.930986 27.198097,37.282101 "
         d="m 27.198097,37.282101 v 9.604609 l 7.413166,1.985977 v -8.941701 z"
         inkscape:box3dsidetype="6"
         style="fill:#353564;fill-rule:evenodd;stroke:none;stroke-width:1.39808989;stroke-linejoin:round"
         id="path192"
         sodipodi:type="inkscape:box3dside" />
      <path
         points="42.713442,39.153421 52.741103,43.137299 34.611263,39.930986 27.198097,37.282101 "
         d="m 27.198097,37.282101 15.515345,1.87132 10.027661,3.983878 -18.12984,-3.206313 z"
         inkscape:box3dsidetype="5"
         style="fill:#4d4d9f;fill-rule:evenodd;stroke:none;stroke-width:1.39808989;stroke-linejoin:round"
         id="path194"
         sodipodi:type="inkscape:box3dside" />
      <path
         points="42.713442,55.022664 52.741103,57.274806 52.741103,43.137299 42.713442,39.153421 "
         d="m 42.713442,39.153421 v 15.869243 l 10.027661,2.252142 V 43.137299 Z"
         inkscape:box3dsidetype="14"
         style="fill:#d7d7ff;fill-rule:evenodd;stroke:none;stroke-width:1.39808989;stroke-linejoin:round"
         id="path198"
         sodipodi:type="inkscape:box3dside" />
      <path
         points="42.713442,39.153421 42.713442,55.022664 27.198097,46.88671 27.198097,37.282101 "
         d="m 27.198097,37.282101 15.515345,1.87132 V 55.022664 L 27.198097,46.88671 Z"
         inkscape:box3dsidetype="3"
         style="fill:#8686bf;fill-rule:evenodd;stroke:none;stroke-width:1.39808989;stroke-linejoin:round"
         id="path196"
         sodipodi:type="inkscape:box3dside" />
    </g>
    <g
       sodipodi:type="inkscape:box3d"
       id="g4570"
       style="fill:#008abb;fill-opacity:1;stroke:#008abb;stroke-width:75.59055328;stroke-miterlimit:4;stroke-dasharray:none;stroke-dashoffset:0;stroke-opacity:1"
       inkscape:perspectiveID="#perspective78"
       inkscape:corner0="2.6438332 : -0.043231057 : 0 : 1"
       inkscape:corner7="0.90766558 : -0.048574646 : 0.078502113 : 1"
       inkscape:transform-center-x="-4.468567"
       inkscape:transform-center-y="-1.2082686">
      <path
         sodipodi:type="inkscape:box3dside"
         id="path4572"
         style="fill:#353564;fill-rule:evenodd;stroke:none;stroke-width:62.78442001;stroke-linejoin:round"
         inkscape:box3dsidetype="6"
         d="m 72.001893,77.12558 -4.900464,-1.685588 -1.664688,0.663611 4.797116,1.65004 z"
         points="67.101429,75.439992 65.436741,76.103603 70.233857,77.753643 72.001893,77.12558 " />
      <path
         sodipodi:type="inkscape:box3dside"
         id="path4580"
         style="fill:#afafde;fill-rule:evenodd;stroke:none;stroke-width:62.78442001;stroke-linejoin:round"
         inkscape:box3dsidetype="13"
         d="M 67.101429,75.439992 66.342611,56.74879 63.252762,58.731242 65.436741,76.103603 Z"
         points="66.342611,56.74879 63.252762,58.731242 65.436741,76.103603 67.101429,75.439992 " />
      <path
         sodipodi:type="inkscape:box3dside"
         id="path4576"
         style="fill:#8686bf;fill-rule:evenodd;stroke:none;stroke-width:62.78442001;stroke-linejoin:round"
         inkscape:box3dsidetype="3"
         d="m 72.001893,77.12558 3.701098,-17.157149 -9.36038,-3.219641 0.758818,18.691202 z"
         points="75.702991,59.968431 66.342611,56.74879 67.101429,75.439992 72.001893,77.12558 " />
      <path
         sodipodi:type="inkscape:box3dside"
         id="path4574"
         style="fill:#4d4d9f;fill-rule:evenodd;stroke:none;stroke-width:62.78442001;stroke-linejoin:round"
         inkscape:box3dsidetype="5"
         d="m 72.001893,77.12558 3.701098,-17.157149 -3.459813,1.855198 -2.009321,15.930014 z"
         points="75.702991,59.968431 72.243178,61.823629 70.233857,77.753643 72.001893,77.12558 " />
      <path
         sodipodi:type="inkscape:box3dside"
         id="path4582"
         style="fill:#e9e9ff;fill-rule:evenodd;stroke:none;stroke-width:62.78442001;stroke-linejoin:round"
         inkscape:box3dsidetype="11"
         d="m 70.233857,77.753643 2.009321,-15.930014 -8.990416,-3.092387 2.183979,17.372361 z"
         points="72.243178,61.823629 63.252762,58.731242 65.436741,76.103603 70.233857,77.753643 " />
      <path
         sodipodi:type="inkscape:box3dside"
         id="path4578"
         style="fill:#d7d7ff;fill-rule:evenodd;stroke:none;stroke-width:62.78442001;stroke-linejoin:round"
         inkscape:box3dsidetype="14"
         d="m 75.702991,59.968431 -9.36038,-3.219641 -3.089849,1.982452 8.990416,3.092387 z"
         points="66.342611,56.74879 63.252762,58.731242 72.243178,61.823629 75.702991,59.968431 " />
    </g>
    <g
       sodipodi:type="inkscape:box3d"
       id="g4612"
       style="fill:#008abb;fill-opacity:1;stroke:#008abb;stroke-width:75.59055328;stroke-miterlimit:4;stroke-dasharray:none;stroke-dashoffset:0;stroke-opacity:1"
       inkscape:perspectiveID="#perspective78"
       inkscape:corner0="0.90766558 : -0.043231057 : 0 : 1"
       inkscape:corner7="0.67366458 : -0.050259429 : 0.0783545 : 1">
      <path
         sodipodi:type="inkscape:box3dside"
         id="path4614"
         style="fill:#353564;fill-rule:evenodd;stroke:none;stroke-width:80.8142395;stroke-linejoin:round"
         inkscape:box3dsidetype="6"
         d="m 75.702991,59.968431 -12.311619,-4.234764 -2.967833,2.018921 11.825888,4.06769 z"
         points="63.391372,55.733667 60.423539,57.752588 72.249427,61.820278 75.702991,59.968431 " />
      <path
         sodipodi:type="inkscape:box3dside"
         id="path4622"
         style="fill:#afafde;fill-rule:evenodd;stroke:none;stroke-width:80.8142395;stroke-linejoin:round"
         inkscape:box3dsidetype="13"
         d="m 63.391372,55.733667 -0.635289,-5.626634 -3.335808,2.540207 1.003264,5.105348 z"
         points="62.756083,50.107033 59.420275,52.64724 60.423539,57.752588 63.391372,55.733667 " />
      <path
         sodipodi:type="inkscape:box3dside"
         id="path4618"
         style="fill:#8686bf;fill-rule:evenodd;stroke:none;stroke-width:80.8142395;stroke-linejoin:round"
         inkscape:box3dsidetype="3"
         d="m 75.702991,59.968431 1.086042,-5.034556 -14.03295,-4.826842 0.635289,5.626634 z"
         points="76.789033,54.933875 62.756083,50.107033 63.391372,55.733667 75.702991,59.968431 " />
      <path
         sodipodi:type="inkscape:box3dside"
         id="path4616"
         style="fill:#4d4d9f;fill-rule:evenodd;stroke:none;stroke-width:80.8142395;stroke-linejoin:round"
         inkscape:box3dsidetype="5"
         d="m 75.702991,59.968431 1.086042,-5.034556 -3.963395,2.324338 -0.576211,4.562065 z"
         points="76.789033,54.933875 72.825638,57.258213 72.249427,61.820278 75.702991,59.968431 " />
      <path
         sodipodi:type="inkscape:box3dside"
         id="path4624"
         style="fill:#e9e9ff;fill-rule:evenodd;stroke:none;stroke-width:80.8142395;stroke-linejoin:round"
         inkscape:box3dsidetype="11"
         d="m 72.249427,61.820278 0.576211,-4.562065 -13.405363,-4.610973 1.003264,5.105348 z"
         points="72.825638,57.258213 59.420275,52.64724 60.423539,57.752588 72.249427,61.820278 " />
      <path
         sodipodi:type="inkscape:box3dside"
         id="path4620"
         style="fill:#d7d7ff;fill-rule:evenodd;stroke:none;stroke-width:80.8142395;stroke-linejoin:round"
         inkscape:box3dsidetype="14"
         d="m 76.789033,54.933875 -14.03295,-4.826842 -3.335808,2.540207 13.405363,4.610973 z"
         points="62.756083,50.107033 59.420275,52.64724 72.825638,57.258213 76.789033,54.933875 " />
    </g>
  </g>
</svg>
